<?xml version="1.0" encoding="utf-8"?>
<!-- Generator: Adobe Illustrator 22.0.1, SVG Export Plug-In . SVG Version: 6.00 Build 0)  -->
<svg version="1.1" id="Layer_1" xmlns="http://www.w3.org/2000/svg" xmlns:xlink="http://www.w3.org/1999/xlink" x="0px" y="0px"
	 viewBox="0 0 1000 1000" style="enable-background:new 0 0 1000 1000;" xml:space="preserve">
<style type="text/css">
	.st0{fill:#232323;}
	.st1{fill:#525454;}
	.st2{fill:#005FAE;}
</style>
<g id="EMSET">
	<path class="st0" d="M231.1,793.7c2.2,2.3,3.3,5,3.3,8.1c0,3.3-1.1,6-3.3,8c-2.2,2.1-5.1,3.1-8.5,3.1h-85.9c-3.3,0-6.1-1.1-8.4-3.5
		c-2.3-2.3-3.5-5.1-3.5-8.4v-149c0-3.3,1.1-6.1,3.5-8.4c2.3-2.3,5.1-3.5,8.4-3.5h85.9c3.5,0,6.3,1.1,8.5,3.2
		c2.2,2.1,3.3,4.9,3.3,8.4c0,3.3-1.1,6-3.3,8c-2.2,2.1-5.1,3.1-8.5,3.1h-73.3v50.3h62.2c3.5,0,6.3,1.1,8.5,3.2
		c2.2,2.1,3.3,4.9,3.3,8.1c0,3.5-1.1,6.2-3.3,8.1s-5.1,3-8.5,3h-62.2v54.5h73.3C226.1,790.3,228.9,791.4,231.1,793.7z"/>
	<path class="st0" d="M423.9,643.6c2.3,2.2,3.5,5,3.5,8.3v149.3c0,3.3-1.1,6.1-3.3,8.4c-2.2,2.3-5.1,3.5-8.8,3.5
		c-3.6,0-6.6-1.1-8.9-3.3c-2.3-2.2-3.5-5.1-3.5-8.5V686.9l-47.9,72.5c-1.2,1.5-2.6,2.7-4.3,3.7c-1.7,1-3.5,1.4-5.3,1.2
		c-1.6,0.2-3.3-0.2-5.1-1.2c-1.7-1-3.2-2.2-4.3-3.7L288,684.7v116.4c0,3.5-1,6.3-3.1,8.5c-2.1,2.2-4.8,3.3-8.3,3.3
		c-3.3,0-6-1.1-8-3.3c-2.1-2.2-3.1-5.1-3.1-8.5V651.9c0-3.1,1.1-5.9,3.5-8.3c2.3-2.4,5.2-3.6,8.6-3.6c2,0,3.9,0.5,5.8,1.5
		c1.9,1,3.4,2.3,4.6,3.9l58.5,88.6l59.2-88.6c2.6-3.6,5.9-5.4,9.9-5.4C418.8,640.2,421.6,641.4,423.9,643.6z"/>
	<path class="st0" d="M488.8,810.4c-9.2-3.4-18-8.8-26.4-16.4c-3.5-3-5.2-6.3-5.2-10.1c0-3,1.1-5.6,3.5-8c2.3-2.4,5-3.6,8.1-3.6
		c2.8,0,5.2,0.9,7.2,2.7c6.6,6.1,13.4,10.6,20.4,13.4c7,2.9,14.9,4.3,23.8,4.3c10.4,0,19.1-2.4,26.3-7.2c7.2-4.8,10.7-10.8,10.7-18
		c-0.2-8.5-3.7-15.2-10.7-19.9c-7-4.7-17.6-8.6-31.9-11.7c-16.9-3.5-30-9.1-39.1-17c-9.1-7.9-13.7-18.8-13.7-32.8
		c0-9.7,2.5-18.2,7.6-25.5c5.1-7.3,12.2-13,21.2-16.9c9-3.9,19.2-5.9,30.6-5.9c10.2,0,19.8,1.6,28.9,4.9c9,3.3,16.4,7.6,22,13.1
		c3.8,3.3,5.7,6.8,5.7,10.6c0,3-1.1,5.6-3.3,7.9c-2.2,2.3-4.9,3.5-8,3.5c-2.3,0-4.2-0.7-5.7-2c-4.3-4.3-10.2-7.9-17.8-10.9
		c-7.6-3-14.8-4.4-21.7-4.4c-11,0-19.8,2.3-26.3,6.8c-6.5,4.5-9.7,10.5-9.7,17.9c0,8.1,3.2,14.2,9.7,18.5c6.5,4.3,16.2,7.9,29,10.9
		c12.8,2.8,23.3,6.1,31.5,9.9c8.1,3.8,14.4,9,18.9,15.8c4.4,6.7,6.7,15.5,6.7,26.4c0,9.5-2.7,18-8,25.4
		c-5.3,7.4-12.6,13.2-21.8,17.3c-9.2,4.1-19.3,6.2-30.3,6.2C508.6,815.5,498,813.8,488.8,810.4z"/>
	<path class="st0" d="M718.1,793.7c2.2,2.3,3.3,5,3.3,8.1c0,3.3-1.1,6-3.3,8c-2.2,2.1-5.1,3.1-8.5,3.1h-85.9c-3.3,0-6.1-1.1-8.4-3.5
		c-2.3-2.3-3.5-5.1-3.5-8.4v-149c0-3.3,1.1-6.1,3.5-8.4c2.3-2.3,5.1-3.5,8.4-3.5h85.9c3.5,0,6.3,1.1,8.5,3.2
		c2.2,2.1,3.3,4.9,3.3,8.4c0,3.3-1.1,6-3.3,8c-2.2,2.1-5.1,3.1-8.5,3.1h-73.3v50.3h62.2c3.5,0,6.3,1.1,8.5,3.2
		c2.2,2.1,3.3,4.9,3.3,8.1c0,3.5-1.1,6.2-3.3,8.1c-2.2,2-5.1,3-8.5,3h-62.2v54.5h73.3C713.1,790.3,715.9,791.4,718.1,793.7z"/>
	<path class="st0" d="M873.1,643.4c2.2,2.1,3.3,4.8,3.3,8.3s-1.1,6.2-3.3,8.1c-2.2,2-5.1,3-8.5,3h-43.9v138.4c0,3.3-1.2,6.1-3.6,8.4
		c-2.4,2.3-5.4,3.5-9,3.5c-3.6,0-6.6-1.1-9-3.5c-2.4-2.3-3.6-5.1-3.6-8.4V662.7h-43.7c-3.5,0-6.3-1-8.5-3.1
		c-2.2-2.1-3.3-4.8-3.3-8.3c0-3.3,1.1-6,3.3-8c2.2-2.1,5.1-3.1,8.5-3.1h112.7C868,640.3,870.8,641.3,873.1,643.4z"/>
</g>
<path class="st1" d="M801.1,584.3C801.1,584.3,801.1,584.3,801.1,584.3l-600.2-0.8c-2.2,0-4-1.8-4-4c0-2.2,1.8-4,4-4c0,0,0,0,0,0
	l600.2,0.8c2.2,0,4,1.8,4,4C805.1,582.5,803.3,584.3,801.1,584.3z"/>
<g>
	<path class="st0" d="M380.6,403.3c-7.2-16.4-11-34.3-11-52.8c0-35.2,13.7-68.2,38.6-93.1c24.9-24.9,57.9-38.6,93.1-38.6
		c18.5,0,36.4,3.8,52.8,11l24-24c-23.4-12.4-49.5-19-76.7-19c-43.7,0-84.8,17-115.7,47.9c-30.9,30.9-47.9,72-47.9,115.7
		c0,27.2,6.6,53.4,19,76.7L380.6,403.3z"/>
	<path class="st0" d="M594.4,443.6c-39.4,39.4-97.6,48.5-145.8,27.5l-24,24c23.9,12.7,50.3,19,76.7,19c41.9,0,83.8-16,115.7-47.9
		c6.2-6.2,6.2-16.4,0-22.6C610.8,437.4,600.6,437.4,594.4,443.6z"/>
</g>
<path class="st2" d="M353.6,514.2c-4.1,0-8.2-1.6-11.3-4.7c-6.2-6.2-6.2-16.4,0-22.6l295.3-295.3c6.2-6.2,16.4-6.2,22.6,0
	c6.2,6.2,6.2,16.4,0,22.6L365,509.5C361.8,512.6,357.7,514.2,353.6,514.2z"/>
</svg>
